<svg xmlns="http://www.w3.org/2000/svg" viewBox="0 0 512 512">
  <defs>
    <linearGradient id="bg" x1="0" y1="0" x2="1" y2="1">
      <stop offset="0%" stop-color="#0d1422"/>
      <stop offset="100%" stop-color="#050914"/>
    </linearGradient>
    <linearGradient id="k" x1="0" y1="0" x2="1" y2="1">
      <stop offset="0%" stop-color="#39d3ff"/>
      <stop offset="100%" stop-color="#9f8bff"/>
    </linearGradient>
    <radialGradient id="aura" cx="50%" cy="35%" r="55%">
      <stop offset="0%" stop-color="#3ad8ff" stop-opacity="0.30"/>
      <stop offset="100%" stop-color="#9f8bff" stop-opacity="0"/>
    </radialGradient>
  </defs>
  <rect width="512" height="512" rx="96" fill="url(#bg)"/>
  <ellipse cx="256" cy="184" rx="176" ry="126" fill="url(#aura)"/>
  <g fill="url(#k)">
    <rect x="183" y="118" width="40" height="221"/>
    <path d="M294 118H336C336 184 314 231 273 260C256 272 240 279 223 282V236C248 231 270 220 286 199C300 181 307 156 307 118Z"/>
    <rect x="223" y="229" width="73" height="28"/>
    <path d="M261 257H309L346 340H293Z"/>
  </g>
  <rect x="24" y="24" width="464" height="464" rx="80" fill="none" stroke="url(#k)" stroke-width="2" opacity="0.20"/>
</svg>
